<?xml version="1.0" standalone="no"?>
<!DOCTYPE svg PUBLIC "-//W3C//DTD SVG 20010904//EN"
 "http://www.w3.org/TR/2001/REC-SVG-20010904/DTD/svg10.dtd">
<svg version="1.0" xmlns="http://www.w3.org/2000/svg"
 width="1280.000000pt" height="816.000000pt" viewBox="0 0 1280.000000 816.000000"
 preserveAspectRatio="xMidYMid meet">

<g transform="translate(0.000000,816.000000) scale(0.100000,-0.100000)"
fill="#000000" stroke="none">
<path d="M2330 5472 c0 -18 -50 -418 -55 -439 -5 -22 -3 -23 64 -23 l69 0 7
68 c3 37 7 74 8 82 2 11 19 16 71 18 l68 3 -7 -86 -7 -85 66 0 c36 0 66 3 66
7 0 16 51 420 55 441 5 21 3 22 -64 22 l-69 0 -6 -57 c-14 -120 -9 -113 -83
-113 l-65 0 7 85 7 85 -66 0 c-36 0 -66 -4 -66 -8z"/>
<path d="M2766 5448 c-3 -18 -15 -112 -26 -208 -11 -96 -22 -187 -25 -202 l-4
-28 203 0 203 0 7 46 c12 91 23 84 -130 84 -124 0 -135 2 -132 18 3 15 19 17
139 20 l136 3 7 46 c12 90 23 83 -128 83 -129 0 -134 1 -129 20 5 19 14 20
138 20 l132 0 7 38 c3 20 6 49 6 65 l0 27 -200 0 -199 0 -5 -32z"/>
<path d="M3201 5388 c-7 -51 -20 -157 -30 -235 l-17 -143 202 0 202 0 6 31 c3
17 6 47 6 65 l0 34 -128 0 c-71 0 -131 2 -133 5 -3 2 3 64 13 137 9 73 18 148
18 166 l0 32 -64 0 -63 0 -12 -92z"/>
<path d="M3636 5328 c-10 -84 -22 -180 -27 -213 -16 -109 -18 -105 55 -105
l65 0 6 48 c3 26 8 64 11 85 l6 37 133 0 134 0 6 33 c7 41 35 248 35 259 0 4
-91 8 -203 8 l-203 0 -18 -152z m272 0 c3 -16 -5 -18 -67 -18 -53 0 -71 3 -71
13 0 24 13 28 74 25 49 -2 61 -7 64 -20z"/>
<path d="M4081 5388 c-7 -51 -20 -157 -29 -235 l-18 -143 68 0 67 0 5 33 c3
17 14 111 26 207 11 96 23 187 25 203 l5 27 -69 0 -68 0 -12 -92z"/>
<path d="M4260 5467 c0 -7 -7 -67 -16 -132 -9 -66 -21 -166 -28 -222 l-12
-103 67 0 67 0 10 78 c6 42 14 104 18 137 11 100 10 99 78 58 l59 -36 -7 -59
c-3 -32 -9 -85 -12 -118 l-7 -60 66 0 c79 0 67 -27 97 230 11 102 23 197 26
213 l6 27 -71 0 -71 0 0 -35 c0 -19 -4 -35 -10 -35 -5 0 -34 16 -64 35 -50 32
-62 35 -126 35 -50 0 -70 -4 -70 -13z"/>
<path d="M4676 5253 c-16 -126 -30 -231 -33 -235 -2 -5 91 -8 206 -8 l211 0 0
38 c0 20 7 82 15 137 8 55 15 106 15 113 0 9 -30 12 -119 12 l-118 0 -7 -37
c-3 -21 -6 -50 -6 -65 0 -25 3 -27 48 -30 34 -2 47 -7 47 -18 0 -12 -15 -16
-67 -18 -79 -3 -75 -12 -55 121 l12 79 134 1 c85 0 134 4 136 11 2 6 6 37 9
69 l6 57 -203 0 -203 0 -28 -227z"/>
<path d="M2126 4643 c-4 -32 -14 -110 -21 -173 -8 -63 -19 -149 -24 -191 -17
-132 -41 -340 -41 -360 0 -18 13 -19 353 -19 l353 0 -4 -40 -4 -40 -356 -2
-356 -3 -17 -130 c-10 -71 -20 -151 -24 -177 l-6 -48 535 0 534 0 6 38 c6 41
34 264 66 527 11 94 22 185 25 203 l4 32 -355 0 -354 0 0 23 c0 12 3 32 6 45
l6 22 353 0 353 0 11 78 c14 101 31 242 31 259 0 11 -94 13 -534 13 l-533 0
-7 -57z"/>
<path d="M3286 4661 c-3 -22 -15 -115 -26 -208 -12 -92 -27 -220 -35 -283 -8
-63 -23 -194 -35 -290 -11 -96 -27 -222 -35 -279 -8 -58 -15 -113 -15 -123 0
-17 24 -18 534 -18 l534 0 6 48 c4 26 24 196 46 377 22 182 54 437 70 567 17
130 30 240 30 243 0 3 -240 5 -534 5 l-533 0 -7 -39z m670 -348 c-4 -21 -13
-92 -20 -158 -8 -66 -20 -168 -27 -227 l-13 -108 -178 0 c-98 0 -178 4 -178 9
0 5 9 76 19 157 11 82 25 197 32 257 l13 107 179 0 179 0 -6 -37z"/>
<path d="M4446 4673 c-3 -16 -22 -158 -41 -318 -19 -159 -51 -415 -70 -567
-19 -153 -35 -289 -35 -303 l0 -25 175 0 c173 0 175 0 179 23 3 12 24 175 46
362 23 187 46 377 52 423 l11 82 89 0 89 0 -5 -32 c-3 -18 -12 -89 -21 -158
-8 -69 -31 -252 -50 -407 -19 -155 -35 -284 -35 -287 0 -4 80 -5 178 -4 l177
3 17 125 c9 69 33 260 53 425 20 165 38 308 41 318 5 14 18 17 90 17 98 0 91
14 70 -147 -8 -59 -29 -225 -46 -368 -17 -143 -35 -286 -39 -317 l-8 -58 178
0 c177 0 179 0 183 23 3 12 16 119 30 237 14 118 46 379 71 580 25 200 45 372
45 382 0 17 -34 18 -709 18 l-709 0 -6 -27z"/>
<path d="M5960 4688 c0 -12 -54 -460 -70 -578 -6 -41 -19 -151 -30 -245 -11
-93 -25 -199 -30 -235 -5 -36 -12 -89 -15 -117 l-6 -53 535 0 534 0 6 33 c3
17 10 73 15 122 5 50 13 116 17 148 l7 57 -358 0 c-322 0 -357 2 -351 16 3 9
6 26 6 40 l0 24 357 2 357 3 17 135 c9 74 20 154 24 178 l7 42 -357 0 -356 0
3 43 3 42 358 3 c196 1 357 6 357 10 0 5 6 55 14 113 8 57 17 132 21 167 l6
62 -536 0 c-398 0 -535 -3 -535 -12z"/>
<path d="M7111 4618 c-6 -46 -29 -234 -52 -418 -22 -184 -51 -422 -65 -528
-13 -106 -24 -197 -24 -202 0 -7 184 -9 532 -8 l533 3 12 90 c7 50 39 315 73
590 33 275 62 512 65 528 l5 27 -534 0 -534 0 -11 -82z m675 -299 c-3 -17 -6
-38 -6 -45 0 -11 -34 -14 -181 -14 l-181 0 6 23 c3 12 6 32 6 45 l0 22 181 0
182 0 -7 -31z m-55 -413 c3 -3 3 -23 1 -45 l-4 -41 -179 0 c-195 0 -185 -3
-173 59 l7 31 172 0 c94 0 174 -2 176 -4z"/>
<path d="M8276 4653 c-3 -27 -26 -214 -51 -418 -62 -511 -65 -532 -75 -605 -5
-36 -12 -89 -15 -117 l-6 -53 534 0 534 0 12 103 c14 111 39 309 46 366 3 20
14 113 25 206 25 206 58 476 65 528 l5 37 -534 0 -534 0 -6 -47z m674 -310 c0
-5 -14 -118 -30 -253 -16 -135 -30 -251 -30 -257 0 -10 -43 -13 -180 -13 -99
0 -180 4 -180 9 0 4 11 95 24 202 13 107 27 222 31 257 l7 62 179 0 c98 0 179
-3 179 -7z"/>
<path d="M9436 4668 c-3 -18 -10 -71 -15 -118 -6 -47 -13 -111 -17 -142 l-7
-58 356 0 357 0 -6 -47 c-3 -27 -9 -75 -14 -108 -5 -33 -14 -107 -20 -165 -7
-58 -15 -127 -19 -155 l-6 -50 -182 -3 c-144 -2 -182 0 -178 10 3 11 55 405
55 423 0 3 -80 4 -177 3 l-178 -3 -21 -170 c-18 -143 -36 -295 -70 -578 l-6
-47 533 2 533 3 12 95 c7 52 33 266 59 475 25 209 53 429 61 488 7 59 14 123
14 142 l0 35 -529 0 -529 0 -6 -32z"/>
<path d="M10596 4688 c-2 -7 -23 -168 -46 -358 -22 -190 -44 -362 -47 -382
l-5 -38 178 -2 c112 -2 178 -7 177 -13 0 -5 -11 -91 -22 -190 -12 -99 -24
-195 -27 -213 l-5 -32 178 2 178 3 11 90 c6 50 17 135 23 190 7 55 15 115 18
133 l5 32 178 0 178 0 7 63 c3 34 10 94 16 132 5 39 16 126 24 195 8 69 21
177 29 240 25 181 45 160 -158 160 l-174 0 -5 -27 c-3 -16 -16 -115 -28 -220
l-23 -193 -178 0 c-136 0 -178 3 -178 13 0 6 11 102 25 211 14 110 25 203 25
208 0 4 -79 8 -175 8 -132 0 -177 -3 -179 -12z"/>
</g>
</svg>
